# xmcd
#
# Track frame offsets:
#	150
#	16074
#	34079
#	49793
#	65033
#	80698
#	95807
#	117296
#	134875
#	151739
#	170518
#	183931
#	200443
#	212842
#
# Disc length: 3043 seconds
#
# Revision: 0
# Processed by: cddbd v1.5.2PL0 Copyright (c) Steve Scherf et al.
# Submitted via: audiograbber 1.83.01
#
DISCID=c70be10e
DTITLE=Various Artist - MULTI HOTT COUNTRY # 133
DYEAR=2007
DGENRE=Country
TTITLE0=Big and Rich - Lost In The Moment
TTITLE1=Miranda Lambert - Famous In A Small Town
TTITLE2=Jimmy Rankin - Got To Leave Louisiana
TTITLE3=Guster - This  Wheel's On Fire
TTITLE4=John Anderson - A Woman Knows
TTITLE5=Taylor Swift - Teardrops On My Guitar
TTITLE6=Lee Ann Womack - The Weight
TTITLE7=Charlie Major - Better World
TTITLE8=Luke Brown - All My Friends Say
TTITLE9=Anne Murrat - Now And Forever
TTITLE10=Ricky Skaggs - I Wouldn't Change You If I Could
TTITLE11=Alabama - Take Me Down
TTITLE12=Aaron Tippin - There Ain't Nuthin' Wrong With The Radio
TTITLE13=WillieNeson - Mamma's Don't Let Your Babies Grow Up To Be Cowboys
EXTD=March 2007
EXTT0=
EXTT1=
EXTT2=
EXTT3=
EXTT4=
EXTT5=
EXTT6=
EXTT7=
EXTT8=
EXTT9=
EXTT10=
EXTT11=
EXTT12=
EXTT13=
PLAYORDER=
